<?xml version="1.0" encoding="UTF-8" standalone="no"?>
<!-- Created with Inkscape (http://www.inkscape.org/) -->

<svg
   version="1.1"
   id="svg1073"
   width="376"
   height="379"
   viewBox="0 0 376 379"
   sodipodi:docname="seele_logo.svg"
   inkscape:version="1.1.1 (c3084ef, 2021-09-22)"
   xmlns:inkscape="http://www.inkscape.org/namespaces/inkscape"
   xmlns:sodipodi="http://sodipodi.sourceforge.net/DTD/sodipodi-0.dtd"
   xmlns="http://www.w3.org/2000/svg"
   xmlns:svg="http://www.w3.org/2000/svg">
  <defs
     id="defs1077" />
  <sodipodi:namedview
     id="namedview1075"
     pagecolor="#ffffff"
     bordercolor="#666666"
     borderopacity="1.0"
     inkscape:pageshadow="2"
     inkscape:pageopacity="0.0"
     inkscape:pagecheckerboard="0"
     showgrid="false"
     showguides="false"
     inkscape:zoom="1.5393137"
     inkscape:cx="233.87046"
     inkscape:cy="164.68378"
     inkscape:window-width="1306"
     inkscape:window-height="969"
     inkscape:window-x="0"
     inkscape:window-y="25"
     inkscape:window-maximized="0"
     inkscape:current-layer="g1079" />
  <g
     inkscape:groupmode="layer"
     inkscape:label="Image"
     id="g1079">
    <path
       style="fill:#ff0000"
       d="m 197.25424,369.12969 c -16.75345,-28.58474 -32.91762,-57.6092 -49.97995,-85.95329 -12.19331,-4.55668 -25.74413,-7.61155 -38.91112,-7.56511 -12.787589,0.75543 -24.657894,6.60858 -33.453885,15.85841 -3.619983,1.38214 -11.173239,13.63013 -11.818447,6.79432 2.899517,-19.53004 19.094326,-35.70391 38.063282,-40.58649 8.0826,-3.30327 18.39132,-1.69896 25.92972,-4.26514 -3.70345,-6.53536 -10.97198,-11.78235 -13.999,-18.56104 -1.69613,-7.05692 -10.09012,-3.51583 -15.35402,-3.24424 -11.668498,0.99294 -23.606118,-0.50151 -35.216292,-1.67952 -12.11552,-2.65516 -24.51898,-6.29827 -34.712198,-13.196 -0.07409,-4.03437 8.532129,-6.32966 12.412629,-8.53202 16.603356,-7.31547 34.987156,-7.51006 52.795529,-8.51329 6.491475,-2.67918 1.35362,-13.68924 -4.141785,-13.16095 -21.370557,-0.19917 -43.589427,-3.29723 -61.783865,-15.29242 4.346364,-8.04832 15.732906,-8.58854 23.772735,-11.8662 6.089202,-2.45438 13.722983,-2.19804 19.114915,-5.39552 2.997038,-5.19452 -3.341493,-12.10781 -7.78122,-15.29563 -12.37492,-1.98789 -24.360102,-6.12514 -35.10642,-12.61373 2.891304,-7.21877 13.393552,-7.53396 19.920411,-10.85602 2.736132,-7.07991 -5.05332,-13.17927 -7.628331,-19.49596 -6.227715,-10.813856 -13.337414,-21.560975 -18.29208,-32.83579 -1.166983,-7.100072 9.041707,-3.024904 13.180155,-3.989446 30.27968,0.839038 60.550651,0.204365 90.819847,-0.730737 -2.2703,-8.874113 2.5351,-8.176562 8.35671,-11.039983 5.23943,-3.547365 -0.68818,-10.239413 -0.58867,-15.2342 -3.76644,-6.228139 -14.01392,-3.475708 -14.36943,3.654997 -5.0847,3.362291 -7.58377,-8.19154 -7.39861,-12.489847 1.661,-5.088058 7.5327,-10.204976 12.71237,-12.429636 14.88056,-5.6065144 31.42868,-3.1157876 46.55011,0.34117 19.68875,4.917903 37.34879,15.458905 54.05014,26.696865 16.9522,-11.787756 37.13733,-16.836516 57.18738,-20.331503 9.17922,-2.225139 18.17701,-4.977008 26.71674,-9.0586371 0.55941,4.9347501 -4.7676,11.1664461 -7.36167,16.1195291 -7.54227,11.707989 -17.93985,21.818223 -29.75286,29.209607 -9.00286,3.89272 -8.27386,5.351307 1.45681,4.55839 41.33067,0.626983 83.00168,0.444035 124.12047,1.575218 -8.84029,17.844481 -20.87323,35.474255 -29.81396,53.852713 7.9849,3.12915 16.11907,6.06674 23.31469,10.94451 -5.54741,6.89852 -15.48133,7.65496 -23.2793,11.04263 -8.83187,2.16209 -18.89706,5.09809 -21.91555,14.80283 -3.79347,6.34455 7.93507,5.60245 11.84246,6.8834 11.6872,1.74101 24.15149,5.85187 33.16517,13.12048 -7.17335,6.97626 -18.41347,8.88786 -27.79586,12.29868 -11.74595,3.25641 -23.89719,3.379 -35.98357,4.00308 0.18403,4.02861 -4.8071,14.19525 2.48615,13.0327 21.34037,0.80526 44.09395,3.34457 61.71526,16.44971 -17.80857,11.24341 -39.13994,15.24906 -59.95538,15.70286 -6.38586,0.61315 -14.45622,-1.177 -15.35173,7.26928 -4.71686,7.15354 5.07487,7.23418 9.76812,6.40436 21.61546,-1.27649 43.64216,2.96171 62.63435,13.54411 7.06621,3.91435 -6.9321,6.39059 -10.16162,8.93569 -15.86837,7.85678 -34.11452,9.0488 -51.50175,9.44914 -11.16494,-1.15802 -22.43262,-1.69744 -33.25559,-4.91463 -13.84044,7.43232 -29.14094,15.26343 -35.84402,30.37814 -15.98009,27.86146 -31.95819,55.72396 -48.16541,83.45421 -4.91253,-2.80034 -6.78925,-10.86704 -10.52265,-15.71288 l -0.5353,-0.92429 -0.35492,-0.61283 z m 32.55302,-25.78278 c 9.95948,-17.34497 20.28082,-34.48733 29.5846,-52.19944 -15.28297,2.59094 -19.40766,19.2333 -26.74661,30.5049 -7.28541,12.59237 -14.58109,25.17878 -21.94183,37.72732 -3.71383,-2.88644 -0.62761,-12.59216 -1.66984,-18.15775 -0.63383,-13.45098 1.27407,-27.21579 -1.38946,-40.42235 -1.40171,19.12314 0.0103,39.00826 -0.55923,58.46207 -4.77563,-0.0171 -6.882,-10.57335 -10.59487,-14.78657 -10.94223,-18.5829 -20.88487,-37.77828 -33.04936,-55.61227 -6.51945,-5.5863 -11.77487,-0.46154 -5.59849,5.79005 16.91283,28.02573 32.54092,56.80511 49.49738,84.8086 5.79257,-3.91562 7.82182,-12.44751 12.10712,-18.21202 3.45351,-5.9675 6.90721,-11.93511 10.36059,-17.90254 z m -25.72242,-20.46722 v -29.5 c -11.85707,0.10796 -23.89361,0.58595 -35.30254,-3.2308 10.45198,21.27775 23.38385,41.39433 34.80254,62.21943 1.15071,-8.71181 0.17747,-19.96146 0.5,-29.48863 z m 17.50065,13 c 6.60828,-12.14304 14.7231,-23.85727 20.49935,-36.20582 -0.18118,-6.25561 -11.33644,-1.46446 -16.31808,-2.88781 -5.23808,1.3214 -16.76651,-3.69249 -14.25519,5.43366 0.27817,16.44111 -1.70774,33.00077 0.73822,49.32835 3.40464,-5.04318 6.2986,-10.40278 9.3357,-15.66838 z m 27.99935,-44.95807 c 13.63187,-4.12007 26.53197,-11.04474 37.6289,-20.02093 -6.13494,-2.84274 -12.26988,-5.68548 -18.40481,-8.52823 -15.41382,13.92939 -33.63985,25.36025 -54.16058,29.69507 8.71122,2.82628 18.52658,-0.0437 27.67968,0.50294 2.48292,6.8e-4 4.8392,-1.17654 7.25681,-1.64885 z M 80.421378,282.52826 c 11.725438,-8.7967 27.029312,-11.72177 41.372142,-9.28389 20.94591,2.91589 40.16812,13.1705 60.92753,16.54598 13.26822,-0.33214 26.83227,1.58406 39.49079,-3.38158 17.46697,-5.6116 33.75229,-15.32809 46.26522,-28.8838 8.25683,-7.79078 15.46015,-17.43186 19.60778,-27.8751 1.2449,-7.98849 -11.49719,-8.55884 -13.9179,-1.98939 -10.43931,16.32559 -22.68245,32.95683 -41.29317,40.35557 -6.56214,1.04294 -14.49419,2.1877 -20.13115,-2.45124 -8.30292,-7.14264 -15.54055,6.91809 -24.498,4.25625 -10.15953,0.32428 -20.22592,-0.061 -29.72065,-4.09064 -11.09929,-3.12141 -21.87371,-8.41658 -33.68823,-6.75207 -9.80606,0.01 -19.77972,-0.96192 -28.78641,3.72941 -11.579002,5.60582 -23.951112,14.24979 -26.942562,27.50587 -0.298703,3.28601 9.610107,-7.49652 11.31461,-7.68537 z M 337.91862,271.07969 c 6.82528,-4.82545 7.1626,-16.11083 -0.90789,-19.7212 -5.35695,-3.10054 -13.47317,-3.45971 -17.89767,1.35756 -4.89725,6.00505 -3.36835,15.71251 3.36529,19.9033 4.24914,2.28592 12.05235,2.16185 15.44027,-1.53966 z m -12.17879,-5.52874 c -5.19622,-3.82787 1.51535,-15.98637 6.71015,-9.09868 5.71209,2.6485 2.37488,12.62537 -4.02813,10.91182 -1.40961,0.61383 -1.78745,-1.21323 -2.68202,-1.81314 z m 5.34501,-4.17126 c -4.39595,-5.07602 -3.62912,4.674 0,0 z m -17.65277,7.28861 c -3.02789,-5.77675 -0.45508,-12.54517 -0.84723,-18.78861 -11.83917,0.77207 -23.4991,4.52772 -34,10 -0.23622,6.27948 9.55871,6.34323 14.18393,8.46486 7.18066,1.78828 14.92994,5.21501 22.19577,3.99146 -0.51082,-1.22257 -1.02165,-2.44514 -1.53247,-3.66771 z m 47.65277,1.20023 c 6.69573,-1.33118 13.14785,-3.34119 19.10882,-6.71993 0.59734,-7.37544 -9.16871,-6.94504 -14.1386,-9.15419 -7.10284,-1.2552 -15.10248,-6.3103 -21.96289,-3.50122 4.45029,6.02647 3.54816,13.98341 1.19032,20.68415 3.37014,4.65666 10.9606,-1.4179 15.80235,-1.30881 z m -187.97467,-5.29129 c -15.88165,-10.33835 -26.40915,-26.33474 -37.07736,-41.58291 -6.42801,2.78333 -16.13866,2.46576 -19.94797,8.49958 0.71587,6.33513 7.11136,11.01597 10.61704,16.25895 5.19044,5.8955 11.83349,9.16919 19.49258,10.60906 9.88584,2.23975 19.31919,7.17074 29.39038,7.91288 -0.82489,-0.56585 -1.64979,-1.1317 -2.47467,-1.69756 z m 64.54727,-3.19047 c 10.26841,-3.72634 16.99051,-12.92682 24.24314,-20.58512 4.23745,-6.82065 9.65518,-12.98394 12.56173,-20.54584 -9.10032,-3.92944 -2.11996,-7.34374 3.33723,-10.80683 6.4445,-3.45507 6.68909,-12.1027 9.47974,-18.20878 2.36138,-6.08897 0.0511,-12.10298 -6.51087,-14.00325 -3.18177,-2.57565 -16.95611,-5.36686 -8.79475,-9.20972 6.28332,-4.25096 17.44997,-5.03038 18.96349,-13.44687 -2.22034,-8.50107 -1.62226,-20.5868 -12.02604,-23.30784 -3.89392,-2.71312 -14.5876,-5.7624 -6.01338,-9.55628 5.73066,-3.69042 -4.40215,-9.71974 -7.39246,-12.73661 -10.87254,-9.968018 -27.02278,-13.581678 -40.86161,-8.03137 -5.23695,1.01579 -11.7237,7.86506 -16.28372,4.9095 -3.54024,-8.379039 -1.72965,-17.575076 -2.2751,-26.411403 12.71097,-14.975227 33.48653,-16.922702 51.12811,-22.727 15.23742,-5.311349 27.75405,-16.14976 37.31178,-28.971316 1.86131,-2.917248 9.45369,-11.341558 3.96041,-12.006196 -23.55745,9.55769 -51.98929,7.851813 -71.93617,25.376375 -10.28871,8.754385 -18.82007,19.610953 -22.59543,32.767294 -0.74698,10.936054 0.15355,22.15708 0.0366,33.202116 -12.43969,-3.39361 -25.30805,-11.870813 -38.30146,-6.47874 -10.39261,2.00431 -20.22417,8.65786 -25.58855,17.49846 0.96419,5.24003 13.56007,6.65191 3.40171,9.73559 -5.08241,3.85477 -13.30677,4.69015 -16.52106,10.05471 -2.3452,6.54452 -5.77964,14.40071 -3.05626,20.89718 7.20143,4.3644 17.70064,4.94311 23.16023,11.47203 -4.26071,6.86792 -14.59103,6.98588 -21.5,10.70567 -0.89755,8.74507 1.52257,16.80875 5.3762,24.57803 4.14501,4.41716 12.8234,5.56599 16.1168,10.27173 -5.58527,4.00464 -9.36231,8.28002 -2.15364,14.24344 9.57235,14.26181 20.70168,28.79126 37.47911,34.74804 7.97137,1.94597 16.67781,0.42116 22.82856,-5.4405 4.78912,-2.59228 10.30873,5.05062 15.61187,6.24388 5.4508,2.20622 11.86037,-1.91344 16.81378,-4.23038 z m -78.84985,-88.61766 c -2.04575,-4.96267 7.80717,-8.16978 5.27725,-14.23623 -3.65475,-4.7728 -9.73975,-9.62449 -2.82654,-14.59608 1.33268,-4.37666 10.95689,-10.2021 6.48199,-2.35358 -5.36285,4.36133 -6.03328,10.38023 0.27665,14.24991 6.44143,5.91965 -3.4701,11.30101 -6.86331,15.9285 -0.77114,0.30743 -1.55032,2.92044 -2.34604,1.00748 z m 18.18757,-2.13942 c -0.13118,-10.90764 0.20807,-21.82469 0.25792,-32.73595 4.24009,-3.17095 10.8229,-0.5521 15.55509,-0.12403 -0.93551,6.71488 -9.38415,11.64546 -11.72335,18.0779 -1.92065,10.69237 4.78218,4.15507 7.59954,-1.43819 7.01969,-2.7394 -0.68699,7.48339 -2.76599,10.07255 -1.90675,1.20868 -8.29491,12.07985 -8.92321,6.14772 z m 7.10064,-25.5 c 6.2255,-7.86454 -7.65431,-4.89939 -4.0851,2.6934 1.56098,2.17169 3.2579,-0.96386 4.0851,-2.6934 z m 12.98904,9.25 c 1.27076,-5.43802 -2.64035,-16.07134 2.13621,-17.99447 3.93034,0.44095 18.0223,-1.37131 11.96651,5.28094 -3.90726,6.35957 -12.28976,12.53553 -10.19364,20.51554 3.22439,3.67796 6.20603,-11.71055 10.53442,-7.89343 0.11339,5.06454 -6.89587,9.80259 -9.45539,14.74461 -6.03184,9.19323 -5.29884,-3.65884 -4.98811,-8.40241 z m 6.4433,-9.22251 c 5.51292,-6.35225 -4.6432,-5.71958 -3.4433,0.65677 -0.7165,3.30712 3.07329,1.13304 3.4433,-0.65677 z m 15.22337,26.55584 c -1.54982,-10.52185 -0.21842,-22.23716 -0.66667,-33.2153 6.26927,-3.30498 3.31119,9.27109 3.98621,13.03341 -1.56891,8.45188 1.78239,14.15631 7.09463,4.58279 6.77166,-7.63648 2.45092,4.71837 -1.13193,7.30198 -2.91881,1.97672 -5.47945,10.66039 -9.28224,8.29712 z m 19,0 c -1.55186,-10.84072 -0.22158,-22.87526 -0.66667,-34.17442 4.65444,-1.13942 14.87668,-2.71994 16,2.28126 -4.13225,7.23726 -12.15684,12.71482 -12.25061,21.70922 4.11508,5.54269 7.44506,-11.89416 11.25061,-7.08365 -1.78415,7.05224 -8.19414,11.9734 -12.17221,17.93426 -0.74791,-0.15574 -1.81145,0.4505 -2.16112,-0.66667 z m 8.34319,-31.16241 c -7.09913,-4.01142 -6.31313,13.82036 -2.09474,5.13004 0.49581,-1.5707 7.55945,-5.91997 2.09474,-5.13004 z M 217.68809,61.587697 c 15.6233,-16.483928 38.77498,-20.943035 58.64436,-30.293724 -0.48222,3.471431 -10.04018,5.706538 -14.15308,8.462475 -17.78142,6.887036 -36.63454,13.798223 -49.44316,28.623239 -6.22638,1.339775 4.81332,-5.511056 4.95188,-6.79199 z m 67.21865,191.279723 c 8.31042,-5.55491 22.42654,-1.47278 26.28451,-12.69789 5.59492,-6.472 -1.29104,-11.59126 -7.98113,-10.82319 -5.84435,-2.12793 -12.62995,-1.65575 -13.81547,5.66498 -2.73021,7.98688 -9.26687,13.92546 -13.30981,20.8994 1.24004,0.98183 6.51043,-2.54737 8.8219,-3.0433 z M 95.571161,226.21179 c 8.643219,-5.2378 5.444279,-19.12404 -3.832726,-21.66672 -8.108942,-4.667 -19.205998,2.42428 -17.653597,11.90261 -0.611615,5.41766 5.635512,11.9502 10.969032,11.93201 3.67577,-0.37129 7.921626,1.33687 10.517291,-2.1679 z m -13.016243,-7.23743 c -4.029098,-4.61093 3.695722,-14.55025 8.07538,-7.14012 5.280397,3.11076 2.016891,10.99452 -3.95666,9.54545 -2.451502,0.5533 -3.029793,-0.39669 -4.11872,-2.40533 z m 5.52992,-3.15369 c -1.178219,-5.49835 -3.366314,6.50239 0,0 z m 250.434222,9.48263 c 8.05497,-4.91057 4.09315,-16.96162 -3.4254,-20.34146 -5.47505,-2.51055 -12.36017,-2.58398 -16.18932,2.90607 -6.7263,7.87394 0.10803,22.38566 10.95254,20.44245 3.90004,0.46449 6.05536,0.17119 8.66218,-3.00706 z m -13.23422,-5.12361 c -3.90852,-4.06269 1.05439,-13.98959 6.78816,-9.66898 6.15696,3.47107 2.75486,13.67506 -4.62437,10.86898 -1.10427,0.52465 -1.48534,-0.69665 -2.16379,-1.2 z m 5.25729,-3.7309 c 0.26342,-6.24888 -3.98582,3.8098 0,0 z m -258.965962,9.1809 c -2.994694,-6.21219 -2.573143,-12.79828 -0.31462,-19.15507 -3.292415,-5.28013 -10.974085,0.46476 -15.924582,0.7041 -6.813074,1.25107 -13.062519,4.0866 -19.252128,7.09032 -0.418917,7.12044 9.903941,6.27247 14.566466,9.01153 7.00797,2.16093 14.259659,4.18795 21.647514,4.09912 l -0.407676,-0.98725 z m 42.196622,0.17443 c 7.93844,-2.1874 16.94206,-3.64497 23.64535,-8.24023 4.75595,-4.76954 -6.89693,-6.36037 -10.34624,-7.96531 -7.29083,-2.35113 -14.81785,-4.83567 -22.48706,-5.18826 -5.203101,2.70457 3.44184,9.12449 0.49876,14.45581 -3.05936,5.55409 -4.26695,11.07405 3.95808,8.03218 1.57704,-0.3647 3.15406,-0.72961 4.73111,-1.09419 z m 199.74484,-0.67443 c -1.39989,-6.67299 -1.34675,-14.15846 0.80044,-20.75 -10.07297,0.20288 -20.15994,3.42212 -29.52084,6.96981 -7.93895,1.22447 -8.51849,7.88131 -0.1873,9.05401 9.9232,2.24801 19.40127,7.28812 29.70825,6.97609 -0.26693,-0.74957 -0.53355,-1.50071 -0.80055,-2.24991 z m 42.25516,0.70848 c 7.89489,-2.13395 16.86079,-3.55564 23.51452,-8.12971 5.4456,-5.12782 -7.13558,-6.63998 -10.78898,-8.32771 -7.86533,-2.01562 -16.41531,-7.02413 -24.48343,-4.03699 4.76163,6.51173 3.83545,15.27837 0.0431,22.03593 4.02622,0.37316 7.83508,-0.57299 11.71479,-1.54152 z m -64.76577,-20.5812 c 7.29597,-1.62377 4.51094,-11.18842 5.07782,-16.74708 -1.9846,-10.20321 -6.50029,-1.12034 -6.87019,4.5082 0.41956,3.90107 -7.14799,13.48477 -1.42826,13.3616 1.07354,-0.37424 2.14709,-0.74848 3.22063,-1.12272 z m -165.4674,-1.80411 c 0.4346,-5.5927 -3.19375,-11.74245 -4.2222,-17.53575 -5.98788,-3.86977 -13.51472,-1.74771 -19.52955,0.77112 -5.210652,2.50829 -3.352576,12.25865 2.16534,13.72226 7.10467,0.88628 13.85737,3.82055 21.0136,3.96922 l 0.56154,-0.90859 0.0113,-0.0182 z M 310.5208,201.3396 c 5.8479,0.0191 14.06077,-1.02234 11.56404,-8.96967 2.79812,-8.85105 -7.92189,-5.79737 -13.28831,-7.45832 -7.1862,-3.0425 -12.36909,1.6442 -9.99318,9.05393 -1.52972,6.93062 0.95281,10.58493 8.08741,7.79033 1.20972,-0.13897 2.42116,-0.27668 3.63004,-0.41627 z M 93.780508,181.42369 c 8.183532,-3.36894 9.911332,-16.86757 0.863014,-20.21792 -5.529353,-3.3147 -14.011009,-5.13732 -17.91395,1.32911 -4.488606,3.89092 -3.826076,12.86387 0.711396,16.67981 3.226346,4.8341 11.934017,5.65866 16.33954,2.209 z m -9.51029,-5.72782 c -4.813791,-2.05767 -2.857628,-11.84921 2.3403,-11.31618 6.270128,-0.59916 9.288252,9.04712 3.33146,12 -1.875082,-0.27463 -3.961028,0.33236 -5.67176,-0.68382 z m 3.96462,-4.81618 c -3.738371,-6.40908 -2.424464,5.90437 0,0 z m 248.551452,10.54048 c 7.46755,-3.38275 8.42019,-14.68031 1.63009,-19.34013 -4.12486,-4.11025 -11.27891,-4.75719 -16.25825,-2.91982 -6.33166,4.55448 -7.86063,13.41005 -3.10673,19.66876 4.17893,4.8948 12.34616,6.50892 17.73489,2.59119 z m -11.13002,-6.61191 c -3.86846,-3.32075 -1.07117,-12.79003 4.98356,-10.42857 5.55922,1.51568 6.81185,10.66915 0.6273,11.97281 -2.14541,-0.0965 -4.32059,0.76166 -5.61086,-1.54424 z m 4.53237,-4.72477 c -6.83157,-2.91978 2.81595,6.25104 0,0 z m -212.95412,9.34579 c 7.51178,-2.12843 16.69642,-3.16671 22.0225,-9.1372 -5.13338,-6.09037 -14.60483,-5.7764 -21.6141,-9.09737 -3.97036,-0.73376 -15.54724,-4.75672 -14.66916,1.06821 4.03278,6.38569 1.79562,13.83128 -0.88892,20.11677 5.20651,0.335 10.10353,-1.98358 15.14968,-2.95041 z m 239.99673,0.52625 c 7.93524,-1.78558 16.92164,-2.76717 22.85359,-8.88582 -0.14182,-6.31348 -10.0793,-5.88277 -14.74646,-8.09894 -6.52894,-1.64153 -12.91935,-4.8065 -19.75354,-3.09108 1.32512,7.55475 2.72556,15.27771 -1.5,22.12212 3.52353,0.9282 9.05998,-1.61504 13.14641,-2.04628 z M 70.359418,177.12969 c -3.8921,-5.51419 2.279973,-12.53685 0.09912,-17.70245 -5.055897,-1.10793 -11.521104,1.74337 -16.934304,2.85034 -6.619364,2.30537 -14.113854,3.02955 -18.807056,8.81511 8.533488,5.71691 19.263165,7.26894 28.935715,10.20599 3.979154,-0.93891 11.020619,3.07343 6.706525,-4.16899 z m 242.725422,2.25 c -1.12077,-6.50562 0.003,-13.36024 -0.25528,-20 -11.71778,-0.006 -23.10699,4.25217 -33.61284,9.21394 -3.21281,6.78628 9.31908,6.31362 13.525,8.89457 6.76666,2.49216 13.56029,4.78148 20.84312,3.39149 l -0.33777,-1.0133 z m -8.86205,-22.52902 c 5.53405,-0.24 13.69466,-3.31728 8.96627,-9.82923 -4.31908,-8.90691 -15.64862,-10.03766 -24.3182,-11.64175 3.21713,7.33009 2.5177,15.81513 6.1711,23 3.12165,0.13545 6.12084,-1.04993 9.18083,-1.52902 z m -184.13565,-5.22098 c -0.42656,-4.46746 5.6945,-12.57921 0.11155,-14.40958 -5.83356,1.82519 -14.01703,0.84638 -18.27933,5.0935 -1.86842,4.72872 -4.215409,14.47343 3.9553,13.57562 4.28911,-0.55202 13.35833,4.8252 13.69423,-1.65226 0.17238,-0.86878 0.34693,-1.73936 0.51825,-2.60728 z m -34.011682,2 c -2.602522,-4.99313 -4.45836,-12.51911 -11.308259,-12.61746 -7.717056,-0.7645 -1.089658,8.17418 1.15282,11.22674 0.758456,3.50403 8.809424,2.37441 10.155439,1.39072 z m 9.987802,-1.20968 c 2.146769,-5.02943 4.64007,-14.06061 -4.115217,-11.04032 -6.363056,-1.74367 -11.872865,1.63996 -5.97342,7.35601 1.874187,3.69655 7.195841,9.15551 10.088637,3.68431 z m 233.67626,-3.57543 c 6.79536,-5.66397 0.80787,-8.76329 -5.65468,-7.83699 -6.57328,-2.22342 -12.51149,0.43742 -7.62078,7.39827 0.54733,6.16607 9.86109,8.98814 11.9636,2.41452 0.43729,-0.6586 0.87457,-1.3172 1.31186,-1.9758 z m 11.6854,1.21778 c 4.55633,-4.72036 4.78002,-14.17112 -3.0359,-7.56165 -3.59792,1.48386 -12.52524,12.28044 -5.09986,11.87898 4.50221,0.37446 6.45913,0.47614 8.13576,-4.31733 z m -7.62488,-12.66902 c 5.19646,-1.89997 9.69204,-6.89029 9.48594,-12.89937 -1.89778,-8.13034 -10.32813,-13.00127 -18.48298,-11.59159 -6.81784,1.65101 -10.84366,11.08116 -7.24175,17.46172 2.55304,6.19167 9.94077,9.0014 16.23879,7.02924 z m -7.49269,-7.57035 c -5.17191,-2.52234 -1.58848,-12.30757 4.3456,-10.4433 5.83936,0.6538 6.32508,10.18528 0.45968,11.66884 -1.66365,1.13852 -3.48909,-0.13748 -4.80528,-1.22554 z m 3.4606,-5.6308 c -1.62361,-4.01855 0.23672,6.20571 0,0 z m -234.196789,11.0196 c 7.222849,-4.45087 6.610889,-15.62013 -0.933895,-19.51504 -6.85897,-4.9818 -17.916435,-3.35547 -20.552428,5.49152 -1.935927,8.25345 4.52426,17.90134 13.61596,16.15595 3.106659,0.0791 5.687132,0.57348 7.870363,-2.13243 z m -12.031773,-6.28665 c -7.490857,-4.17515 3.826391,-14.06202 7.89046,-7.71671 5.951039,4.20299 -3.999636,15.01107 -7.89046,7.71671 z m 4.54545,-4.10447 c -1.178219,-5.49835 -3.366314,6.50239 0,0 z m 272.826942,8.96274 c 7.14921,-1.21819 13.71359,-4.1059 20.17306,-7.29307 0.29094,-6.67359 -9.98322,-6.21588 -14.70626,-8.60072 -7.0924,-2.38292 -14.22465,-4.52369 -21.79374,-4.00993 1.63631,5.8107 4.96022,11.31895 1.54166,17.22481 -5.56154,8.85219 3.82993,5.25014 9.60364,3.97199 1.72722,-0.43102 3.45443,-0.86205 5.18164,-1.29308 z M 70.368838,132.12969 c -4.087897,-5.93115 2.830898,-13.65804 -0.28176,-19.0811 -10.800498,3.11715 -23.537634,3.25185 -32.50423,10.3333 -4.377861,5.92497 8.425304,6.6562 12.383205,8.76487 7.120964,2.10891 14.37766,4.48833 21.884855,4.2329 -0.494023,-1.41666 -0.988047,-2.83331 -1.48207,-4.24997 z m 45.716002,2.31978 c 8.00955,-1.84757 16.91479,-3.52832 23,-9.37976 -2.15919,-5.11279 -11.26673,-5.29341 -16.47215,-7.66272 -6.42024,-1.40426 -14.12915,-5.79846 -20.27023,-2.57997 1.53345,4.20401 4.57916,10.37799 1.91881,15.58799 -6.170961,7.77263 3.4141,6.44377 8.53719,4.76409 1.0954,-0.24325 2.19111,-0.48627 3.28638,-0.72963 z m 197.32694,-1.81978 c -3.86046,-5.53067 1.37234,-13.84205 -1.34372,-18.70294 -7.34716,-0.83546 -15.01273,3.23618 -22.48322,4.30133 -4.37236,1.58424 -16.37726,5.89854 -8.33475,10.37492 11.01411,3.33752 22.05433,8.14941 33.7327,7.77677 -0.52366,-1.25003 -1.0474,-2.50004 -1.57101,-3.75008 z m -28.04616,-16.06731 c 6.76673,-0.87699 9.92389,-6.69217 4.12167,-11.37152 -10.64728,-13.174809 -22.21461,-25.834452 -34.16139,-37.758112 -4.93463,-5.649066 -12.15899,-4.323712 -18.42968,-1.941691 -4.60957,0.603718 -17.42061,4.841631 -10.33674,10.05339 10.46322,8.228542 18.44002,19.699272 31.36698,24.366524 9.16413,3.419809 13.81678,13.537599 21.65838,18.372259 1.9885,0.27684 3.87696,-1.25617 5.78078,-1.72085 z m -149.25329,-1.86945 c 7.21458,-5.5749 13.48154,-12.36998 22.38973,-15.352455 6.90837,-3.918292 15.54669,-2.533241 23.18029,-2.943006 6.50396,1.745038 13.05983,3.302489 19.50957,5.243491 -1.57794,-6.210665 1.08895,-15.205574 -4.17853,-19.385816 -14.27809,-2.600381 -29.36863,-1.588255 -43.17791,2.9536 -12.63292,4.151102 -23.67418,11.718846 -32.30852,21.790126 -8.26777,5.17162 3.37806,7.45128 7.91212,8.82208 2.42582,0.84422 4.78768,0.85692 6.67325,-1.12802 z M 48.0823,87.411461 C 44.773622,82.316514 41.774194,77.047491 39.142138,71.571677 49.721204,68.878566 61.21257,71.10933 72.155428,70.379687 H 201.92593 c 4.76046,-8.590921 -4.85618,-8.759016 -10.95333,-7.895415 -55.29367,1.209672 -110.591258,0.224343 -165.887762,-0.210755 3.208622,10.033798 10.47162,18.990482 15.25397,28.60619 L 53.212469,112.37971 C 67.121199,111.51607 51.741464,94.631615 48.0823,87.411461 Z m 285.86184,22.294799 c 6.01037,-0.92031 13.98766,2.53494 18.73629,-1.19222 7.35708,-11.087818 13.28584,-23.170313 20.10268,-34.634353 -35.27621,-0.559288 -70.55244,-0.551578 -105.8287,0 11.06906,12.345403 21.37987,25.331218 31.90259,38.138053 11.66573,-2.36159 23.20255,-3.26229 35.08714,-2.31148 z m 29.51805,0.42343 c 7.58653,-8.49495 11.20717,-20.059205 17.83733,-29.416155 2.67476,-6.181369 9.14532,-11.314045 8.78532,-18.333848 H 254.71066 c 4.00068,5.415548 9.45099,9.534194 16.52272,7.975474 l 105.35146,1.134696 c -6.32431,13.314592 -15.22474,25.724983 -21.5,38.969203 1.27213,2.09159 6.90229,2.917 8.37735,-0.32937 z m -245.73491,-3.82777 c 8.92316,-12.312494 22.96056,-19.644724 36.95356,-24.702829 12.48235,-4.692284 25.89659,-3.646382 38.94869,-3.49699 6.80364,5.404897 10.52397,-6.976916 1.84955,-4.722414 H 43.084839 c 6.28792,12.447324 13.635279,24.804333 21.499999,36.500003 16.434227,0.39723 33.097942,-2.18165 49.284872,1.5 1.28586,-1.69259 2.57171,-3.38518 3.85757,-5.07777 z m 103.85756,-7.026223 c 3.2028,-1.807786 17.89178,-3.033018 9.53415,-6.765509 -6.64894,-1.657613 -13.64108,-8.223363 -20.38942,-5.375235 -3.14418,3.499483 -1.86621,12.784008 0.85526,15.274337 3.33332,-1.04454 6.66677,-2.08898 10.00001,-3.133593 z m 11.18119,-14.54257 c -4.96454,-4.178261 -11.0227,-12.602421 -18.03224,-9.586989 -8.46111,5.463275 -3.33605,7.851693 4.22883,9.687922 6.65941,2.034998 13.69711,5.972955 20.12222,6.829297 0.13878,-2.062987 -4.74993,-4.81041 -6.31881,-6.93023 z m -95.43546,-25.74236 c 7.31019,-6.977632 13.54423,-18.069964 24.80579,-18.301453 13.69183,0.492386 26.16625,6.223446 37.28434,13.897322 5.22935,5.223502 11.48887,0.184449 14.20912,-4.956622 2.7581,-4.604075 11.60954,-9.785534 3.39081,-13.349463 -22.24828,-14.86421 -48.37739,-26.6382165 -75.61106,-25.656893 -9.68363,1.183492 -22.24093,1.678811 -26.31725,12.256036 -0.35685,10.05123 0.64288,6.820827 6.14526,3.143055 5.94845,-1.570688 14.89654,-0.554243 15.11475,7.272116 2.52976,6.445828 4.42131,14.567179 -2.0859,19.363565 -4.78184,2.884075 -8.81858,1.97276 -1.49695,7.185715 1.49843,1.146252 3.40237,0.404775 4.56109,-0.853378 z M 123.16355,20.106296 c 1.79767,-6.680569 12.52855,-4.396289 4.42129,1.188116 -2.16448,-0.213541 -7.79049,3.736103 -4.42129,-1.188116 z m 68.23031,38.436191 c 10.89373,1.612024 4.05114,-4.167179 -2.09812,-6.054648 -10.72873,-5.727371 -24.29154,-12.011464 -35.96215,-5.314132 -0.74435,4.293121 -10.95962,9.70133 -7.34477,11.701284 15.1344,-0.134505 30.27383,0.01497 45.40504,-0.332504 z"
       id="path1158"
       sodipodi:nodetypes="ccccccccccccccccccccccccccccccccccccccccccccccccccccccccccccccccccccccccccccccccccccccccccccccccccccccccccccccccccccccccccccccccccccccccccccccccccccccccccccccccccccccccccccccccccccccccccccccccccccccccccccccccccccccccccccccccccccccccccccccccccccccccccccccccccccccccccccccccccccccccccccccccccccccccccccccccccccccccccccccccccccccccccccccccccccccccccccccccccccccccccccccccccccccccccccccccccccccccccccccccccccccccccccccccccccccccccccccccccccccccccccccccccccccccccccccccccccccccccccccccccccccccccccc" />
    <text
       xml:space="preserve"
       style="font-style:normal;font-weight:normal;font-size:13.3333px;line-height:1.25;font-family:sans-serif;fill:#ff0000;fill-opacity:1;stroke:none"
       x="203.67894"
       y="197.4906"
       id="text3003"><tspan
         sodipodi:role="line"
         id="tspan3001"
         x="203.67894"
         y="197.4906"
         style="font-style:italic;font-variant:normal;font-weight:normal;font-stretch:normal;font-size:13.3333px;font-family:Trattatello;-inkscape-font-specification:'Trattatello Italic';text-align:center;text-anchor:middle;fill:#ff0000">Überm Sternenzelt</tspan><tspan
         sodipodi:role="line"
         x="203.67894"
         y="214.93919"
         id="tspan5867"
         style="font-style:italic;font-variant:normal;font-weight:normal;font-stretch:normal;font-size:13.3333px;font-family:Trattatello;-inkscape-font-specification:'Trattatello Italic';text-align:center;text-anchor:middle;fill:#ff0000">richtet Gott, </tspan><tspan
         sodipodi:role="line"
         x="203.67894"
         y="232.3878"
         id="tspan6229"
         style="font-style:italic;font-variant:normal;font-weight:normal;font-stretch:normal;font-size:13.3333px;font-family:Trattatello;-inkscape-font-specification:'Trattatello Italic';text-align:center;text-anchor:middle;fill:#ff0000">wie wir gerichtet.</tspan></text>
  </g>
</svg>
